<svg width="83" height="92" viewBox="0 0 83 92" fill="none" xmlns="http://www.w3.org/2000/svg">
<path d="M41.2874 11.4257C19.5892 11.4257 2 29.0149 2 50.7131C2 61.5622 6.39972 71.3841 13.5081 78.4924C20.6213 85.6008 30.4431 90.0005 41.2922 90.0005C52.1413 90.0005 61.9632 85.6008 69.0764 78.4924C76.1847 71.3841 80.5845 61.5622 80.5845 50.7131C80.5845 39.864 76.1847 30.0373 69.0764 22.929C61.9632 15.8158 52.1413 11.4209 41.2922 11.4209L41.2874 11.4257Z" stroke="white" stroke-width="4"/>
<path d="M41.2892 24.3497C26.7284 24.3497 14.9199 36.1582 14.9199 50.719C14.9199 65.2798 26.7284 77.0834 41.2892 77.0834C55.8499 77.0834 67.6536 65.2798 67.6536 50.719C67.6536 36.1582 55.8499 24.3497 41.2892 24.3497Z" stroke="white" stroke-width="4"/>
<path d="M32.4814 2H49.6016C49.6519 2.00024 49.6943 2.04222 49.6943 2.09375C49.6943 2.10778 49.692 2.11754 49.6885 2.12598C49.6843 2.13591 49.6768 2.14743 49.666 2.1582C49.6552 2.16897 49.6437 2.17645 49.6338 2.18066C49.6254 2.18422 49.6156 2.18647 49.6016 2.18652H32.4814C32.4313 2.18626 32.3889 2.14504 32.3887 2.09375C32.3887 2.07947 32.3909 2.06908 32.3945 2.06055C32.3987 2.05061 32.4062 2.03909 32.417 2.02832C32.4278 2.01755 32.4393 2.01007 32.4492 2.00586C32.4576 2.0023 32.4674 2.00006 32.4814 2Z" fill="#0076FE" stroke="white" stroke-width="4"/>
<path d="M39.2246 39.0684H46.4873C46.5017 39.0684 46.5119 39.0706 46.5205 39.0742C46.5304 39.0784 46.542 39.0859 46.5527 39.0967C46.5634 39.1074 46.57 39.119 46.5742 39.1289C46.5778 39.1375 46.5811 39.1477 46.5811 39.1621C46.5808 39.2136 46.5376 39.2549 46.4873 39.2549H39.3047L38.998 40.8848L37.9561 46.418L37.5098 48.7881H40.9492C40.9879 48.7913 41.0348 48.7938 41.0879 48.7949V48.7979C44.6748 48.8804 47.5787 51.755 47.7061 55.3291L47.708 55.377L47.7119 55.4248C47.7129 55.4372 47.7133 55.4465 47.7139 55.4541C47.7144 55.4614 47.7147 55.4657 47.7148 55.4678C47.715 55.4699 47.715 55.4683 47.7148 55.4639L47.7168 55.5527C47.7173 55.5652 47.7182 55.5778 47.7188 55.5879C47.7182 55.6007 47.7176 55.6181 47.7158 55.6455C47.7149 55.6599 47.7108 55.7184 47.709 55.748C47.7065 55.7882 47.7033 55.8383 47.7012 55.8936C47.6967 56.0097 47.6935 56.0917 47.6885 56.165C47.6755 56.2848 47.6662 56.3726 47.6543 56.4531L47.6523 56.4629C47.6177 56.7056 47.6131 56.7654 47.5938 56.8623L47.5869 56.8945L47.582 56.9258C47.5816 56.9283 47.5796 56.9378 47.5752 56.958C47.5703 56.9803 47.5649 57.0052 47.5547 57.0488L47.5518 57.0605L47.5488 57.0732C47.5123 57.2374 47.4659 57.4125 47.4102 57.6055L47.3398 57.8457C46.8913 59.1459 46.062 60.3168 44.8701 61.1621L44.8691 61.1631C43.6778 62.0098 42.3067 62.416 40.9492 62.416C38.8165 62.416 36.7241 61.4187 35.4053 59.5635C35.3692 59.512 35.388 59.4543 35.4229 59.4297C35.4744 59.3935 35.532 59.4124 35.5566 59.4473L35.5596 59.4521C36.8061 61.2028 38.736 62.1285 40.6875 62.2041L40.8096 62.209L40.9307 62.1992C40.9665 62.1962 40.9993 62.1927 41.0264 62.1895C41.041 62.1877 41.0543 62.1843 41.0664 62.1826C44.1464 62.1242 46.6847 59.9488 47.3545 57.085L47.3535 57.084C47.3566 57.0731 47.3618 57.0591 47.3662 57.043C47.3766 57.0049 47.3926 56.945 47.4072 56.8721L47.4121 56.8477L47.416 56.8242C47.4726 56.5009 47.4896 56.1536 47.499 56.0215L47.501 55.9912L47.502 55.9619V55.9629C47.5036 55.944 47.5048 55.9336 47.5088 55.8906C47.5146 55.8284 47.5283 55.6888 47.5283 55.5293C47.5283 55.4073 47.5182 55.3051 47.5098 55.2344C47.5065 55.2072 47.5022 55.1811 47.499 55.1592C47.42 54.0538 47.0744 52.9145 46.373 51.8896C46.366 51.8773 46.3595 51.8639 46.3516 51.8506L46.3066 51.7754L46.2549 51.7041C45.0664 50.0667 43.1317 48.9795 40.9346 48.9795H37.4053C37.4043 48.9792 37.4033 48.9788 37.4023 48.9785C37.3931 48.9754 37.3812 48.9708 37.3691 48.9668C37.3635 48.9637 37.3576 48.9603 37.3516 48.957H37.3525C37.3487 48.9549 37.3446 48.9532 37.3408 48.9512L37.3203 48.9248L37.3164 48.9209L37.3145 48.917C37.3125 48.911 37.3107 48.9048 37.3086 48.8984C37.3081 48.8971 37.3071 48.8959 37.3066 48.8945L37.3379 48.7949V48.6494L39.1289 39.1494C39.1385 39.0991 39.1811 39.0684 39.2246 39.0684ZM47.3516 57.0947C47.3494 57.1031 47.3469 57.11 47.3457 57.1143L47.3525 57.0908C47.3522 57.0921 47.3519 57.0935 47.3516 57.0947ZM46.4453 52.0234C46.4466 52.026 46.4475 52.0287 46.4482 52.0303C46.4476 52.029 46.4447 52.0242 46.4414 52.0176C46.4427 52.0201 46.4445 52.0218 46.4453 52.0234ZM37.4883 49.0771C37.4875 49.0764 37.4856 49.0753 37.4834 49.0732C37.4828 49.0727 37.4822 49.072 37.4814 49.0713C37.485 49.0744 37.4874 49.0763 37.4883 49.0771Z" fill="#FC0C35" stroke="#FC0C35" stroke-width="4"/>
</svg>
