<svg width="64" height="40" viewBox="0 0 64 40" fill="none" xmlns="http://www.w3.org/2000/svg">
<path d="M31.4777 0.00085588C22.7977 0.0823103 15.3701 5.75359 12.7075 13.6038L14.6369 14.2554C17.0296 7.19939 23.7038 2.10849 31.4929 2.03722L31.4726 0.00085588H31.4777ZM51.6732 20.0081C51.6732 8.89468 42.6115 -0.100962 31.4777 0.00085588L31.498 2.03722C41.5016 1.94558 49.6369 10.0249 49.6369 20.0081H51.6732ZM50.8944 19.3514C51.3016 19.2852 51.6732 19.6008 51.6732 20.0081H49.6369C49.6369 20.8583 50.3954 21.4997 51.2303 21.3572L50.8944 19.3463V19.3514ZM52.6303 19.2037C52.0398 19.2037 51.4543 19.2546 50.8893 19.3514L51.2303 21.3572C51.6834 21.2808 52.1518 21.2401 52.6252 21.2401V19.2037H52.6303ZM63.0361 29.6095C63.0361 23.867 58.3728 19.2037 52.6303 19.2037V21.2401C57.2528 21.2401 60.9998 24.987 60.9998 29.6095H63.0361ZM52.6303 39.9899C58.3728 39.9899 63.0361 35.3572 63.0361 29.6095H60.9998C60.9998 34.227 57.2528 37.9535 52.6303 37.9535V39.9899ZM14.0209 39.9899H52.6303V37.9535H14.0209V39.9899ZM51.0623 20.3543L51.2303 21.3572L51.0572 20.3543H51.0623Z" fill="white"/>
<path d="M13.4146 15.2175H13.4196V13.1812H13.4146V15.2175ZM5.37092 18.547C7.42765 16.4903 10.2735 15.2175 13.4146 15.2175V13.1812C9.71348 13.1812 6.35858 14.6881 3.93532 17.1113L5.37602 18.552L5.37092 18.547ZM2.04146 26.5855C2.04146 23.4444 3.30911 20.6088 5.37092 18.552L3.93022 17.1113C1.50186 19.5346 0 22.8844 0 26.5906H2.03636L2.04146 26.5855ZM5.37092 34.6291C3.30911 32.5673 2.04146 29.7266 2.04146 26.5855H0.00509587C0.00509587 30.2866 1.50696 33.6364 3.93532 36.0647L5.37602 34.624L5.37092 34.6291ZM13.4146 37.9586C10.2735 37.9586 7.43274 36.6909 5.37092 34.6291L3.93022 36.0698C6.35858 38.4982 9.70839 40 13.4095 40V37.9636L13.4146 37.9586ZM21.4581 34.6291C19.3963 36.6909 16.5557 37.9586 13.4146 37.9586V39.9949C17.1157 39.9949 20.4655 38.4931 22.8938 36.0647L21.4531 34.624L21.4581 34.6291ZM24.7876 26.5855C24.7876 29.7266 23.52 32.5673 21.4581 34.6291L22.8989 36.0698C25.3273 33.6415 26.8291 30.2917 26.8291 26.5906H24.7927L24.7876 26.5855ZM13.4196 15.2175C19.7018 15.2175 24.7876 20.3033 24.7876 26.5855H26.824C26.824 19.1833 20.8218 13.1812 13.4196 13.1812V15.2175Z" fill="white"/>
<path d="M7.43773 26.5855C7.43773 23.2816 10.1155 20.6037 13.4195 20.6037V18.5674C8.99554 18.5674 5.40137 22.1616 5.40137 26.5855H7.43773ZM13.4195 32.5674C10.1155 32.5674 7.43773 29.8895 7.43773 26.5855H5.40137C5.40137 31.0095 8.99554 34.6037 13.4195 34.6037V32.5674ZM19.4013 26.5855C19.4013 29.8895 16.7235 32.5674 13.4195 32.5674V34.6037C17.8435 34.6037 21.4377 31.0095 21.4377 26.5855H19.4013ZM13.4195 20.6037C16.7235 20.6037 19.4013 23.2816 19.4013 26.5855H21.4377C21.4377 22.1616 17.8537 18.5674 13.4195 18.5674V20.6037Z" fill="white"/>
<path d="M11.2815 26.5856C11.2815 25.3638 12.2742 24.3711 13.496 24.3711V22.3347C11.144 22.3347 9.24512 24.2438 9.24512 26.5856H11.2815ZM13.496 24.3711C14.056 24.3711 14.5142 23.9129 14.5142 23.3529C14.5142 22.7929 14.056 22.3347 13.496 22.3347V24.3711ZM9.24512 26.5856C9.24512 27.1456 9.7033 27.6038 10.2633 27.6038C10.8233 27.6038 11.2815 27.1456 11.2815 26.5856H9.24512Z" fill="#FC0C35"/>
<path d="M44.0202 29.7572C44.0202 25.0685 47.818 21.2707 52.5067 21.2707V19.2343C46.698 19.2343 41.9839 23.9485 41.9839 29.7572H44.0202ZM52.5067 21.2707C53.0667 21.2707 53.5249 20.8125 53.5249 20.2525C53.5249 19.6925 53.0667 19.2343 52.5067 19.2343V21.2707ZM41.9839 29.7572C41.9839 30.3172 42.4421 30.7754 43.0021 30.7754C43.5621 30.7754 44.0202 30.3172 44.0202 29.7572H41.9839Z" fill="white"/>
</svg>
