<svg width="242" height="242" viewBox="0 0 242 242" fill="none" xmlns="http://www.w3.org/2000/svg">
<path d="M271.34 131.599L281.99 140.369L281.993 140.404L271.343 131.633L271.34 131.599ZM234.791 43.4031C261.611 65.5698 279.964 97.9425 283.514 135.316L269.812 136.618C266.619 103.012 250.167 73.9154 226.048 53.9809L234.822 43.3655L234.791 43.4031ZM135.347 12.8571C172.721 9.30686 208.008 21.2674 234.791 43.4031L226.017 54.0185C201.935 34.115 170.224 23.4049 136.618 26.5973L135.316 12.8947L135.347 12.8571ZM43.4341 61.5807C65.6008 34.7606 97.9736 16.4074 135.347 12.8571L136.649 26.5597C103.043 29.752 73.9466 46.2039 54.0121 70.3232L43.3966 61.5497L43.4341 61.5807ZM12.8882 161.024C9.3379 123.65 21.3017 88.3976 43.3998 61.584L54.0154 70.3575C34.1151 94.4736 23.3674 126.154 26.5597 159.76L12.8571 161.062L12.8882 161.024ZM61.6118 252.937C34.7917 230.771 16.4384 198.398 12.8882 161.024L26.5908 159.722C29.7831 193.328 46.2351 222.425 70.3545 242.359L61.5807 252.975L61.6118 252.937ZM161.055 283.483C123.681 287.034 88.4286 275.07 61.615 252.972L70.3887 242.356C94.5048 262.256 126.185 273.004 159.791 269.812L161.093 283.514L161.055 283.483ZM283.545 135.279C290.646 210.026 235.803 276.383 161.055 283.483L159.753 269.781C226.965 263.396 276.227 203.792 269.843 136.58L283.545 135.279ZM276.663 135.967L281.952 140.338L271.38 153.13L269.809 136.584L276.66 135.933L276.663 135.967ZM65.983 247.648L61.615 252.972L65.9862 247.683L65.983 247.648ZM276.694 135.93L271.405 131.558L281.977 118.767L283.549 135.313L276.697 135.964L276.694 135.93Z" fill="white"/>
<path d="M140.651 68.6936C184.534 64.525 223.507 96.7365 227.676 140.619L213.973 141.921C210.521 105.575 178.299 78.9435 141.953 82.3962L140.651 68.6936ZM68.7258 155.718C64.5573 111.836 96.7687 72.8621 140.651 68.6936L141.953 82.3962C105.607 85.8488 78.9758 118.07 82.4284 154.417L68.7258 155.718ZM155.751 227.644C111.868 231.812 72.8944 199.601 68.7258 155.718L82.4284 154.417C85.8811 190.763 118.103 217.394 154.449 213.941L155.751 227.644ZM227.676 140.619C231.845 184.502 199.633 223.475 155.751 227.644L154.449 213.941C190.795 210.488 217.426 178.267 213.973 141.921L227.676 140.619Z" fill="white"/>
<path d="M143.19 108.928C165.474 106.811 185.213 122.621 187.266 144.23C186.208 146.868 182.768 147.515 180.823 145.441L180.308 144.891C178.608 126.993 162.288 113.922 143.831 115.675L143.169 115.145C141.175 113.548 141.185 110.512 143.19 108.928Z" fill="#FC0C35"/>
</svg>
