<svg width="83" height="60" viewBox="0 0 83 60" fill="none" xmlns="http://www.w3.org/2000/svg">
<path d="M2.72277 38.7519V14.4945H0V38.7519H2.72277ZM9.97896 46.0093C5.96968 46.0093 2.72277 42.7618 2.72277 38.7519H0C0 44.2596 4.47216 48.7326 9.97896 48.7326V46.0093ZM27.9901 46.0093H9.97896V48.7326H27.9901V46.0093ZM27.1665 58.8971L29.3243 47.6297L26.6491 47.119L24.4913 58.3865L27.1665 58.8971ZM56.6813 57.2768H25.8323V60H56.6813V57.2768ZM53.1894 47.6297L55.3471 58.8971L58.0223 58.3865L55.8645 47.119L53.1894 47.6297ZM72.521 46.0093H54.5235V48.7326H72.521V46.0093ZM79.7772 38.7519C79.7772 42.7618 76.5303 46.0093 72.521 46.0093V48.7326C78.0278 48.7326 82.5 44.2596 82.5 38.7519H79.7772ZM79.7772 9.98071V38.7519H82.5V9.98071H79.7772ZM72.521 2.72325C76.5303 2.72325 79.7772 5.97073 79.7772 9.98071H82.5C82.5 4.47294 78.0278 0 72.521 0V2.72325ZM14.315 2.72325H72.521V0H14.315V2.72325ZM2.72277 14.4945C2.72277 13.7456 2.11015 13.1329 1.36139 13.1329C0.612624 13.1329 0 13.7456 0 14.4945H2.72277ZM27.9901 47.3709L29.3243 47.6297C29.3991 47.228 29.297 46.8195 29.0384 46.5063C28.7797 46.1931 28.3917 46.0093 27.9901 46.0093V47.3709ZM25.8323 58.6384L24.4981 58.3797C24.4233 58.7813 24.5254 59.1898 24.784 59.503C25.0427 59.8162 25.4307 60 25.8323 60V58.6384ZM56.6813 58.6384V60C57.0897 60 57.4709 59.8162 57.7296 59.503C57.9882 59.1898 58.0903 58.7813 58.0155 58.3797L56.6813 58.6384ZM54.5235 47.3709V46.0093C54.1151 46.0093 53.7339 46.1931 53.4752 46.5063C53.2166 46.8195 53.1145 47.228 53.1894 47.6297L54.5235 47.3709ZM14.315 0C13.5662 0 12.9536 0.612731 12.9536 1.36162C12.9536 2.11052 13.5662 2.72325 14.315 2.72325V0Z" fill="#0076FE"/>
<path d="M26.0699 48.7389H62.6639V46.0156H26.0699V48.7389ZM62.6639 48.7389C63.4127 48.7389 64.0253 48.1261 64.0253 47.3772C64.0253 46.6284 63.4127 46.0156 62.6639 46.0156V48.7389ZM26.0699 46.0156C25.3211 46.0156 24.7085 46.6284 24.7085 47.3772C24.7085 48.1261 25.3211 48.7389 26.0699 48.7389V46.0156Z" fill="#0076FE"/>
<path d="M9.97896 0C4.47216 0 0 4.47294 0 9.98071H2.72277C2.72277 5.97073 5.96968 2.72325 9.97896 2.72325V0ZM0 9.98071C0 10.7296 0.612624 11.3423 1.36139 11.3423C2.11015 11.3423 2.72277 10.7296 2.72277 9.98071H0ZM9.97896 2.72325C10.7277 2.72325 11.3403 2.11052 11.3403 1.36162C11.3403 0.612731 10.7277 0 9.97896 0V2.72325Z" fill="#FC0C35"/>
<path d="M68.1836 12.3499H14.3135V15.0731H68.1836V12.3499ZM14.3135 12.3499C13.5648 12.3499 12.9521 12.9626 12.9521 13.7115C12.9521 14.4604 13.5648 15.0731 14.3135 15.0731V12.3499ZM68.1836 15.0731C68.9323 15.0731 69.545 14.4604 69.545 13.7115C69.545 12.9626 68.9323 12.3499 68.1836 12.3499V15.0731Z" fill="#0076FE"/>
<path d="M68.1836 23.6306H14.3135V26.3539H68.1836V23.6306ZM14.3135 23.6306C13.5648 23.6306 12.9521 24.2433 12.9521 24.9922C12.9521 25.7411 13.5648 26.3539 14.3135 26.3539V23.6306ZM68.1836 26.3539C68.9323 26.3539 69.545 25.7411 69.545 24.9922C69.545 24.2433 68.9323 23.6306 68.1836 23.6306V26.3539Z" fill="#0076FE"/>
<path d="M68.1836 34.9048H14.3135V37.628H68.1836V34.9048ZM14.3135 34.9048C13.5648 34.9048 12.9521 35.5175 12.9521 36.2664C12.9521 37.0153 13.5648 37.628 14.3135 37.628V34.9048ZM68.1836 37.628C68.9323 37.628 69.545 37.0153 69.545 36.2664C69.545 35.5175 68.9323 34.9048 68.1836 34.9048V37.628Z" fill="#0076FE"/>
</svg>
