<svg width="90" height="90" viewBox="0 0 90 90" fill="none" xmlns="http://www.w3.org/2000/svg">
<path d="M45.3743 18.7812C29.9887 18.7812 17.5112 31.4047 17.5112 46.9704C17.5112 62.5361 29.9887 75.1544 45.3743 75.1544C60.76 75.1544 73.2324 62.5361 73.2324 46.9704C73.2324 31.4047 60.76 18.7812 45.3743 18.7812Z" stroke="white" stroke-width="3"/>
<path d="M39.6836 3.46289C42.7632 0.846826 47.2304 0.844851 50.3164 3.46191V3.46289L56.0654 8.34668C57.2977 9.3944 58.8653 9.9726 60.4775 9.97266H67.9834C71.9982 9.97266 75.4352 12.8757 76.1367 16.9092V16.9102L77.4424 24.3896V24.3916C77.7224 25.9859 78.5503 27.4411 79.7852 28.4844V28.4834L85.5312 33.3662C88.5225 35.9073 89.3544 40.186 87.5625 43.6748L87.3809 44.0098L83.6279 50.5879C82.8255 51.9937 82.5384 53.6427 82.8184 55.2354V55.2363L84.124 62.7158C84.8258 66.7524 82.5754 70.6754 78.7959 72.0684L71.7402 74.6689C70.3173 75.1926 69.1132 76.1761 68.3066 77.4561L68.1504 77.7158L64.3975 84.2939C62.3808 87.8292 58.1759 89.3719 54.4023 87.9814L47.3467 85.3809H47.3457C45.9241 84.8579 44.3689 84.8244 42.9326 85.2832L42.6484 85.3809L35.5947 87.9805C34.6596 88.3237 33.6978 88.4893 32.7578 88.4893H32.3701C29.7256 88.3611 27.2244 86.9458 25.749 84.5508L25.6025 84.3047L21.8496 77.7266L21.8477 77.7236L21.6924 77.4648C20.8874 76.1922 19.6844 75.2032 18.2588 74.6787H18.2578L11.2041 72.0791C7.42466 70.6862 5.17436 66.7631 5.87598 62.7266L7.18164 55.248C7.46282 53.6467 7.1674 51.999 6.37402 50.5977L6.37207 50.5938L2.61914 44.0156L2.61816 44.0137C0.594547 40.4735 1.381 35.9941 4.46875 33.3711L10.2178 28.4863H10.2188C11.4499 27.4395 12.2775 25.9865 12.5576 24.3916V24.3896L13.8633 16.9102V16.9092C14.5648 12.8757 18.0018 9.97266 22.0166 9.97266H29.5225C31.1347 9.97259 32.7023 9.3944 33.9346 8.34668L33.9336 8.3457L39.6836 3.46289ZM49.4111 4.62598C46.8594 2.45665 43.1395 2.45632 40.5879 4.62598L34.8398 9.50879C33.3469 10.7733 31.4576 11.4697 29.5225 11.4697H22.0166C18.6739 11.4697 15.8449 13.8863 15.2656 17.1855L15.2646 17.1865L13.959 24.667C13.6193 26.6141 12.6088 28.3816 11.1221 29.6445V29.6455L5.37305 34.5293C2.82281 36.693 2.18728 40.3663 3.84766 43.2734V43.2744L7.60059 49.8525L7.60156 49.8535C8.57507 51.5598 8.92824 53.5729 8.58887 55.5186L7.2832 62.998L7.28223 62.999C6.72769 66.193 8.43222 69.3352 11.3926 70.5791L11.6826 70.6934L18.7383 73.293L18.7393 73.2939C20.5593 73.9632 22.1057 75.2747 23.0791 76.9805L26.832 83.5586C28.4392 86.3752 31.7646 87.6815 34.8252 86.707L35.1201 86.6055L42.1729 84.0049L42.1738 84.0059C43.9948 83.3363 46.0045 83.3355 47.832 84.0059V84.0049L54.8848 86.6055H54.8857C58.0277 87.7625 61.5128 86.473 63.1729 83.5576L63.1738 83.5586L66.9258 76.9795C67.8993 75.2738 69.4465 73.9631 71.2666 73.2939L71.2676 73.293L78.3223 70.6934C81.4605 69.5376 83.2951 66.296 82.7227 62.999V62.998L81.417 55.5186V55.5176C81.0779 53.5774 81.4307 51.5598 82.4043 49.8535V49.8525L86.1572 43.2744C87.8133 40.3719 87.1767 36.693 84.626 34.5293H84.627L78.8779 29.6455V29.6445C77.3894 28.3801 76.3755 26.6126 76.041 24.6699V24.667L74.7354 17.1865C74.1613 13.8843 71.3293 11.4697 67.9834 11.4697H60.4775C58.5424 11.4697 56.6521 10.7733 55.1592 9.50879L49.4111 4.62598Z" fill="#0076FE" stroke="white" stroke-width="3"/>
<path d="M56.4868 34.0117C56.6663 33.7026 57.0221 33.5825 57.3306 33.6885L57.4595 33.748C57.7962 33.952 57.9223 34.4087 57.7163 34.7705L44.4604 57.666L44.4585 57.6699C44.3438 57.8692 44.1415 57.9953 43.9243 58.0176C43.9017 58.0184 43.8836 58.019 43.8726 58.0195C43.8608 58.02 43.8534 58.0203 43.8491 58.0205H43.7603C43.5843 57.9989 43.4191 57.9101 43.3042 57.7686L43.3003 57.7646L33.1069 45.2754C32.8465 44.9565 32.8946 44.4792 33.2036 44.2207C33.4652 44.0021 33.8374 44.0046 34.0952 44.2158L34.1978 44.3184L42.3745 54.3359L43.7466 56.0176L44.8345 54.1396L56.4868 34.0117Z" fill="#FC0C35" stroke="#FC0C35" stroke-width="3"/>
</svg>
