<svg width="40" height="40" viewBox="0 0 40 40" fill="none" xmlns="http://www.w3.org/2000/svg">
<path d="M20.0032 37.9706C15.4014 37.9706 10.7996 36.2196 7.29635 32.7075L5.86363 34.1397C9.76681 38.0466 14.8901 40 20.0082 40V37.9757L20.0032 37.9706ZM32.7151 32.7075C29.2068 36.2146 24.605 37.9706 20.0032 37.9706V39.9949C25.1214 39.9949 30.2395 38.0364 34.1427 34.1346L32.71 32.7024L32.7151 32.7075ZM37.975 20C37.975 24.6002 36.2234 29.1953 32.71 32.7075L34.1427 34.1397C38.0458 30.2328 39.9949 25.1215 39.9949 20.0051H37.9699L37.975 20ZM32.7049 7.29252C36.2132 10.8047 37.9699 15.3998 37.975 20H40C39.9949 14.8836 38.0408 9.76721 34.1427 5.86033L32.71 7.29252H32.7049ZM19.9981 2.02936C24.5999 2.02936 29.2017 3.78038 32.7049 7.29252L34.1377 5.86033C30.2345 1.95345 25.1112 0 19.993 0V2.02429L19.9981 2.02936ZM7.29129 7.28746C10.7996 3.78038 15.3963 2.02936 19.9981 2.02936V0.00506567C14.885 0.00506567 9.76681 1.95851 5.86363 5.86033L7.29635 7.29252L7.29129 7.28746ZM7.29129 32.6973C0.269617 25.6832 0.269617 14.3067 7.29129 7.28746L5.85856 5.85526C-1.95285 13.664 -1.95285 26.3259 5.85856 34.1295L7.29129 32.6973ZM6.57746 33.416H5.56496V33.836L5.85856 34.1346L6.57746 33.4211V33.416ZM33.4289 33.416L34.1427 34.1295L33.4238 33.416H33.4289ZM6.57746 33.4109H7.58995V32.9909L7.29129 32.6923L6.57746 33.4059V33.4109Z" fill="#0076FE"/>
<path d="M26.8731 26.8675C23.0763 30.663 16.9254 30.663 13.1285 26.8675L11.6958 28.2997C16.2824 32.8847 23.7193 32.8847 28.3059 28.2997L26.8731 26.8675ZM26.8731 13.1276C30.67 16.9232 30.67 23.072 26.8731 26.8675L28.3059 28.2997C32.8925 23.7146 32.8925 16.2804 28.3059 11.6954L26.8731 13.1276ZM13.1285 13.1276C16.9254 9.33207 23.0763 9.33207 26.8731 13.1276L28.3059 11.6954C23.7193 7.1104 16.2824 7.1104 11.6958 11.6954L13.1285 13.1276ZM13.1285 26.8675C9.33168 23.072 9.33168 16.9232 13.1285 13.1276L11.6958 11.6954C7.10921 16.2804 7.10921 23.7146 11.6958 28.2997L13.1285 26.8675Z" fill="#0076FE"/>
<path d="M22.7059 22.6976C21.1669 24.2366 18.6711 24.2366 17.1321 22.6976L15.6995 24.1302C18.0282 26.459 21.8099 26.459 24.1387 24.1302L22.7059 22.6976ZM17.1321 22.6976C16.7373 22.3027 16.0943 22.3027 15.6995 22.6976C15.3046 23.0925 15.3046 23.7354 15.6995 24.1302L17.1321 22.6976ZM24.1387 24.1302C24.5335 23.7354 24.5335 23.0925 24.1387 22.6976C23.7438 22.3027 23.1008 22.3027 22.7059 22.6976L24.1387 24.1302Z" fill="#FC0C35"/>
</svg>
