<svg width="43" height="55" viewBox="0 0 43 55" fill="none" xmlns="http://www.w3.org/2000/svg">
<path d="M28.4427 40.5903L29.2796 40.6949L29.5702 38.3876L28.7333 38.283L28.4427 40.5903ZM21.0849 42.0548C23.8862 42.0548 26.5771 41.5086 29.0239 40.5147L28.1521 38.3585C25.9727 39.2419 23.584 39.7243 21.0849 39.7243V42.049V42.0548ZM13.1459 40.5147C15.5985 41.5027 18.2836 42.0548 21.0849 42.0548V39.7301C18.5858 39.7301 16.2029 39.2419 14.0177 38.3643L13.1459 40.5205V40.5147ZM12.6693 40.6019H13.5818V38.2771H12.6693V40.6019ZM5.23014 49.3604L13.5295 40.2183L11.8092 38.6549L3.50983 47.797L5.23014 49.3604ZM8.65914 51.5747L5.23014 47.797L3.50983 49.3604L6.93882 53.1381L8.65914 51.5747ZM20.9977 44.862C15.4067 44.862 10.3969 47.4773 6.90977 51.6037L8.6882 53.1032C11.7801 49.4417 16.1622 47.1867 20.9977 47.1867V44.862ZM35.0857 51.6037C31.5985 47.4773 26.5887 44.862 20.9977 44.862V47.1867C25.8332 47.1867 30.2153 49.4417 33.3072 53.1032L35.0857 51.6037ZM36.7653 47.797L33.3363 51.5747L35.0566 53.1381L38.4856 49.3604L36.7653 47.797ZM28.5647 40.3287L36.7653 49.3604L38.4856 47.797L30.2851 38.7654L28.5647 40.3287ZM29.4249 39.5441H30.5873V38.5154L29.5702 38.3876L29.4249 39.5383V39.5441ZM28.588 39.4395L28.7333 38.2888L28.4311 38.2539L28.1521 38.3702L28.588 39.4453V39.4395ZM13.5818 39.4395L14.0177 38.3643L13.8084 38.2771H13.5818V39.4395ZM12.6693 39.4395V38.2771H12.1521L11.8034 38.6607L12.6635 39.4395H12.6693ZM4.36998 48.5816L3.50983 47.8028L2.80078 48.5816L3.50983 49.3604L4.36998 48.5816ZM7.79898 52.3593L6.93882 53.1381L7.82804 54.1203L8.68238 53.109L7.79317 52.3593H7.79898ZM34.1964 52.3593L33.3072 53.109L34.1616 54.1203L35.0508 53.1381L34.1906 52.3593H34.1964ZM37.6254 48.5816L38.4856 49.3604L39.1946 48.5816L38.4856 47.8028L37.6254 48.5816ZM29.4249 39.5499H28.2625V39.9975L28.5647 40.3287L29.4249 39.5499Z" fill="#0076FE"/>
<path d="M2.32474 21.0215C2.32474 10.6938 10.6938 2.32474 21.0215 2.32474V0C9.41521 0 0 9.4152 0 21.0215H2.32474ZM21.0215 39.7183C10.6938 39.7183 2.32474 31.3492 2.32474 21.0215H0C0 32.6278 9.41521 42.043 21.0215 42.043V39.7183ZM39.7182 21.0215C39.7182 31.3492 31.3492 39.7183 21.0215 39.7183V42.043C32.6278 42.043 42.043 32.6278 42.043 21.0215H39.7182ZM21.0215 2.32474C31.3492 2.32474 39.7182 10.6938 39.7182 21.0215H42.043C42.043 9.4152 32.6278 0 21.0215 0V2.32474Z" fill="#0076FE"/>
<path d="M21.0218 10.9612C26.5779 10.9612 31.0821 15.4654 31.0821 21.0215H33.4069C33.4069 14.181 27.8623 8.63647 21.0218 8.63647V10.9612ZM10.9615 21.0215C10.9615 15.4654 15.4657 10.9612 21.0218 10.9612V8.63647C14.1812 8.63647 8.63672 14.181 8.63672 21.0215H10.9615ZM21.0218 31.0819C15.4657 31.0819 10.9615 26.5777 10.9615 21.0215H8.63672C8.63672 27.8621 14.1812 33.4066 21.0218 33.4066V31.0819ZM31.0821 21.0215C31.0821 26.5777 26.5779 31.0819 21.0218 31.0819V33.4066C27.8623 33.4066 33.4069 27.8621 33.4069 21.0215H31.0821Z" fill="#0076FE"/>
<path d="M17.1216 21.0214C17.1216 18.8013 18.9175 17.0054 21.1376 17.0054V14.6807C17.6389 14.6807 14.7969 17.5226 14.7969 21.0214H17.1216ZM21.1376 17.0054C21.7769 17.0054 22.3 16.4823 22.3 15.843C22.3 15.2037 21.7769 14.6807 21.1376 14.6807V17.0054ZM14.7969 21.0214C14.7969 21.6607 15.3199 22.1838 15.9592 22.1838C16.5986 22.1838 17.1216 21.6607 17.1216 21.0214H14.7969Z" fill="#FC0C35"/>
</svg>
