<svg width="80" height="51" viewBox="0 0 80 51" fill="none" xmlns="http://www.w3.org/2000/svg">
<path d="M39.5296 0.00108013C28.6291 0.103876 19.3012 7.26107 15.9575 17.168L18.3805 17.9904C21.3854 9.08568 29.767 2.66093 39.5488 2.57098L39.5233 0.00108013H39.5296ZM64.8919 25.2504C64.8919 11.2251 53.5118 -0.127415 39.5296 0.00108013L39.5552 2.57098C52.118 2.45533 62.3345 12.6514 62.3345 25.2504H64.8919ZM63.9137 24.4216C64.4252 24.338 64.8919 24.7364 64.8919 25.2504H62.3345C62.3345 26.3233 63.2871 27.1328 64.3356 26.9529L63.9137 24.4151V24.4216ZM66.0938 24.2353C65.3522 24.2353 64.617 24.2995 63.9073 24.4216L64.3356 26.9529C64.9046 26.8565 65.4928 26.8052 66.0874 26.8052V24.2353H66.0938ZM79.1618 37.3674C79.1618 30.1203 73.3055 24.2353 66.0938 24.2353V26.8052C71.8989 26.8052 76.6044 31.5338 76.6044 37.3674H79.1618ZM66.0938 50.4675C73.3055 50.4675 79.1618 44.621 79.1618 37.3674H76.6044C76.6044 43.1947 71.8989 47.8976 66.0938 47.8976V50.4675ZM17.607 50.4675H66.0938V47.8976H17.607V50.4675ZM64.1247 25.6873L64.3356 26.9529L64.1183 25.6873H64.1247Z" fill="#0076FE"/>
<path d="M16.8464 19.2043H16.8528V16.6344H16.8464V19.2043ZM6.74497 23.4061C9.32787 20.8105 12.9018 19.2043 16.8464 19.2043V16.6344C12.1985 16.6344 7.98531 18.5361 4.94209 21.5943L6.75137 23.4125L6.74497 23.4061ZM2.56372 33.5507C2.56372 29.5867 4.15568 26.0081 6.74497 23.4125L4.9357 21.5943C1.88609 24.6525 0 28.88 0 33.5572H2.55732L2.56372 33.5507ZM6.74497 43.7018C4.15568 41.0998 2.56372 37.5148 2.56372 33.5507H0.00639955C0.00639955 38.2215 1.89249 42.449 4.94209 45.5136L6.75137 43.6954L6.74497 43.7018ZM16.8464 47.9037C12.9018 47.9037 9.33427 46.3039 6.74497 43.7018L4.9357 45.5201C7.9853 48.5847 12.1921 50.4799 16.84 50.4799V47.91L16.8464 47.9037ZM26.9478 43.7018C24.3585 46.3039 20.7911 47.9037 16.8464 47.9037V50.4736C21.4944 50.4736 25.7012 48.5782 28.7508 45.5136L26.9414 43.6954L26.9478 43.7018ZM31.1291 33.5507C31.1291 37.5148 29.5371 41.0998 26.9478 43.7018L28.7572 45.5201C31.8068 42.4555 33.6928 38.228 33.6928 33.5572H31.1355L31.1291 33.5507ZM16.8528 19.2043C24.7421 19.2043 31.1291 25.6226 31.1291 33.5507H33.6864C33.6864 24.2092 26.1486 16.6344 16.8528 16.6344V19.2043Z" fill="#0076FE"/>
<path d="M9.33906 33.5508C9.33906 29.3812 12.7019 26.0018 16.8512 26.0018V23.4319C11.2954 23.4319 6.78174 27.9677 6.78174 33.5508H9.33906ZM16.8512 41.0999C12.7019 41.0999 9.33906 37.7205 9.33906 33.5508H6.78174C6.78174 39.1339 11.2954 43.6698 16.8512 43.6698V41.0999ZM24.3633 33.5508C24.3633 37.7205 21.0005 41.0999 16.8512 41.0999V43.6698C22.407 43.6698 26.9207 39.1339 26.9207 33.5508H24.3633ZM16.8512 26.0018C21.0005 26.0018 24.3633 29.3812 24.3633 33.5508H26.9207C26.9207 27.9677 22.4198 23.4319 16.8512 23.4319V26.0018Z" fill="#0076FE"/>
<path d="M14.1672 33.551C14.1672 32.009 15.4139 30.7562 16.9483 30.7562V28.1863C13.9946 28.1863 11.6099 30.5956 11.6099 33.551H14.1672ZM16.9483 30.7562C17.6515 30.7562 18.2269 30.178 18.2269 29.4713C18.2269 28.7645 17.6515 28.1863 16.9483 28.1863V30.7562ZM11.6099 33.551C11.6099 34.2577 12.1853 34.8359 12.8885 34.8359C13.5918 34.8359 14.1672 34.2577 14.1672 33.551H11.6099Z" fill="#FC0C35"/>
<path d="M55.2824 37.5535C55.2824 31.6363 60.0518 26.8435 65.94 26.8435V24.2736C58.6453 24.2736 52.7251 30.2229 52.7251 37.5535H55.2824ZM65.94 26.8435C66.6433 26.8435 67.2187 26.2652 67.2187 25.5585C67.2187 24.8518 66.6433 24.2736 65.94 24.2736V26.8435ZM52.7251 37.5535C52.7251 38.2602 53.3005 38.8385 54.0038 38.8385C54.707 38.8385 55.2824 38.2602 55.2824 37.5535H52.7251Z" fill="#0076FE"/>
</svg>
