<svg width="44" height="60" viewBox="0 0 44 60" fill="none" xmlns="http://www.w3.org/2000/svg">
<path d="M26.8072 54.0385H17.1289C8.31285 54.0385 0.791919 47.1651 0.00539665 38.3902C-0.0609366 37.6384 0.491854 36.9751 1.24363 36.9087C1.99541 36.8424 2.65872 37.3952 2.72505 38.1469C3.38523 45.5257 9.71217 51.3062 17.1257 51.3062H26.804C34.2176 51.3062 40.5445 45.5289 41.2047 38.1533C41.271 37.4015 41.9406 36.8455 42.6861 36.915C43.4379 36.9814 43.9907 37.6447 43.9243 38.3965C43.1378 47.1683 35.6169 54.0385 26.8009 54.0385H26.8072Z" fill="white"/>
<path d="M26.8065 47.2103H17.1282C11.4141 47.2103 6.76758 42.5607 6.76758 36.8465V17.1171C6.76758 16.3622 7.38037 15.7526 8.13215 15.7526C8.88393 15.7526 9.4967 16.3654 9.4967 17.1171V36.8465C9.4967 41.054 12.9208 44.478 17.1282 44.478H26.8065C31.014 44.478 34.438 41.054 34.438 36.8465V10.3606C34.438 6.1532 31.014 2.72914 26.8065 2.72914H23.8531C23.0982 2.72914 22.4885 2.11635 22.4885 1.36457C22.4885 0.612795 23.1013 0 23.8531 0H26.8065C32.5207 0 37.1703 4.64965 37.1703 10.3638V36.8497C37.1703 42.5638 32.5207 47.2135 26.8065 47.2135V47.2103Z" fill="white"/>
<path d="M22.6041 23.0143H8.91731C8.16237 23.0143 7.55273 22.4015 7.55273 21.6497C7.55273 20.898 8.16553 20.2852 8.91731 20.2852H22.6041C23.359 20.2852 23.9686 20.898 23.9686 21.6497C23.9686 22.4015 23.3558 23.0143 22.6041 23.0143Z" fill="white"/>
<path d="M22.6041 30.2282H8.91731C8.16237 30.2282 7.55273 29.6154 7.55273 28.8636C7.55273 28.1118 8.16553 27.499 8.91731 27.499H22.6041C23.359 27.499 23.9686 28.1118 23.9686 28.8636C23.9686 29.6154 23.3558 30.2282 22.6041 30.2282Z" fill="white"/>
<path d="M22.6041 37.443H8.91731C8.16237 37.443 7.55273 36.8302 7.55273 36.0784C7.55273 35.3267 8.16553 34.7139 8.91731 34.7139H22.6041C23.359 34.7139 23.9686 35.3267 23.9686 36.0784C23.9686 36.8302 23.3558 37.443 22.6041 37.443Z" fill="white"/>
<path d="M8.13215 11.7189C7.37721 11.7189 6.76758 11.1061 6.76758 10.3543C6.76758 4.64333 11.4141 0 17.1219 0C17.8768 0 18.4864 0.612795 18.4864 1.36457C18.4864 2.11635 17.8736 2.72914 17.1219 2.72914C12.9176 2.72914 9.4967 6.15004 9.4967 10.3543C9.4967 11.1092 8.88393 11.7189 8.13215 11.7189Z" fill="#FC0C35"/>
<path d="M22.5989 60.0002C21.844 60.0002 21.2344 59.3874 21.2344 58.6356V52.6751C21.2344 51.9202 21.8472 51.3105 22.5989 51.3105C23.3507 51.3105 23.9635 51.9233 23.9635 52.6751V58.6356C23.9635 59.3906 23.3507 60.0002 22.5989 60.0002Z" fill="white"/>
<path d="M27.7523 59.9996H17.4486C16.6936 59.9996 16.084 59.3868 16.084 58.6351C16.084 57.8833 16.6968 57.2705 17.4486 57.2705H27.7523C28.5073 57.2705 29.1169 57.8833 29.1169 58.6351C29.1169 59.3868 28.5041 59.9996 27.7523 59.9996Z" fill="white"/>
</svg>
