<svg width="48" height="80" viewBox="0 0 48 80" fill="none" xmlns="http://www.w3.org/2000/svg">
<path d="M37.6081 0H16.04V3.631H37.6081V0ZM47.675 10.067C47.675 4.51153 43.1636 0 37.6081 0V3.631C41.1665 3.631 44.044 6.50858 44.044 10.067H47.675ZM47.675 69.9331V10.067H44.044V69.9331H47.675ZM37.6081 80C43.1636 80 47.675 75.4885 47.675 69.9331H44.044C44.044 73.4914 41.1665 76.369 37.6081 76.369V80ZM10.067 80H37.6081V76.369H10.067V80ZM0 69.9331C0 75.4885 4.51154 80 10.067 80V76.369C6.50859 76.369 3.631 73.4914 3.631 69.9331H0ZM0 16.2397V69.9331H3.631V16.2397H0ZM16.04 0C15.0415 0 14.2245 0.816975 14.2245 1.8155C14.2245 2.81402 15.0415 3.631 16.04 3.631V0ZM3.631 16.2397C3.631 15.2411 2.81402 14.4242 1.8155 14.4242C0.816975 14.4242 0 15.2411 0 16.2397H3.631Z" fill="#0076FE"/>
<path d="M3.631 10.067C3.631 6.50858 6.50859 3.631 10.067 3.631V0C4.51154 0 0 4.51153 0 10.067H3.631ZM10.067 3.631C11.0655 3.631 11.8825 2.81402 11.8825 1.8155C11.8825 0.816975 11.0655 0 10.067 0V3.631ZM0 10.067C0 11.0655 0.816975 11.8825 1.8155 11.8825C2.81402 11.8825 3.631 11.0655 3.631 10.067H0Z" fill="#FC0C35"/>
<path d="M23.8346 15.0042C25.3988 15.0042 26.6668 13.7362 26.6668 12.172C26.6668 10.6078 25.3988 9.33984 23.8346 9.33984C22.2704 9.33984 21.0024 10.6078 21.0024 12.172C21.0024 13.7362 22.2704 15.0042 23.8346 15.0042Z" fill="#0076FE"/>
<path d="M34.7472 28.7856H12.9249V32.4166H34.7472V28.7856ZM12.9249 28.7856C11.9263 28.7856 11.1094 29.6026 11.1094 30.6011C11.1094 31.5997 11.9263 32.4166 12.9249 32.4166V28.7856ZM34.7472 32.4166C35.7457 32.4166 36.5627 31.5997 36.5627 30.6011C36.5627 29.6026 35.7457 28.7856 34.7472 28.7856V32.4166Z" fill="#0076FE"/>
<path d="M34.7472 43.8167H12.9249V47.4476H34.7472V43.8167ZM12.9249 43.8167C11.9263 43.8167 11.1094 44.6336 11.1094 45.6322C11.1094 46.6307 11.9263 47.4476 12.9249 47.4476V43.8167ZM34.7472 47.4476C35.7457 47.4476 36.5627 46.6307 36.5627 45.6322C36.5627 44.6336 35.7457 43.8167 34.7472 43.8167V47.4476Z" fill="#0076FE"/>
<path d="M34.7472 58.8495H12.9249V62.4805H34.7472V58.8495ZM12.9249 58.8495C11.9263 58.8495 11.1094 59.6665 11.1094 60.665C11.1094 61.6635 11.9263 62.4805 12.9249 62.4805V58.8495ZM34.7472 62.4805C35.7457 62.4805 36.5627 61.6635 36.5627 60.665C36.5627 59.6665 35.7457 58.8495 34.7472 58.8495V62.4805Z" fill="#0076FE"/>
</svg>
