<svg width="79" height="80" viewBox="0 0 79 80" fill="none" xmlns="http://www.w3.org/2000/svg">
<path d="M4.49036 63.6156V26.6332H0V63.6156H4.49036ZM16.4572 75.5295C9.84513 75.5295 4.49036 70.1984 4.49036 63.6156H0C0 72.6572 7.37543 80 16.4572 80V75.5295ZM62.4161 75.5295H16.4572V80H62.4161V75.5295ZM74.3829 63.6156C74.3829 70.1984 69.0281 75.5295 62.4161 75.5295V80C71.4978 80 78.8732 72.6572 78.8732 63.6156H74.3829ZM74.3829 16.3845V63.6156H78.8732V16.3845H74.3829ZM62.4161 4.47052C69.0281 4.47052 74.3829 9.80163 74.3829 16.3845H78.8732C78.8732 7.34284 71.4978 0 62.4161 0V4.47052ZM27.0994 4.47052H62.4161V0H27.0994V4.47052ZM4.49036 26.6332C4.49036 25.4038 3.48003 24.3979 2.24518 24.3979C1.01033 24.3979 0 25.4038 0 26.6332H4.49036ZM27.0994 0C25.8645 0 24.8542 1.00587 24.8542 2.23526C24.8542 3.46466 25.8645 4.47052 27.0994 4.47052V0Z" fill="#0076FE"/>
<path d="M16.4572 0C7.37543 0 0 7.34284 0 16.3845H4.49036C4.49036 9.80163 9.84513 4.47052 16.4572 4.47052V0ZM0 16.3845C0 17.6139 1.01033 18.6197 2.24518 18.6197C3.48003 18.6197 4.49036 17.6139 4.49036 16.3845H0ZM16.4572 4.47052C17.692 4.47052 18.7024 3.46466 18.7024 2.23526C18.7024 1.00587 17.692 0 16.4572 0V4.47052Z" fill="#FC0C35"/>
<path d="M22.2716 34.0652V19.6701H17.7812V34.0652H22.2716ZM34.4854 31.8299H20.0264V36.3004H34.4854V31.8299ZM32.2402 19.6701V34.0652H36.7306V19.6701H32.2402ZM20.0264 21.9053H34.4854V17.4348H20.0264V21.9053ZM20.0264 34.0652H17.7812C17.7812 35.2946 18.7916 36.3004 20.0264 36.3004V34.0652ZM34.4854 34.0652V36.3004C35.7202 36.3004 36.7306 35.2946 36.7306 34.0652H34.4854ZM34.4854 19.6701H36.7306C36.7306 18.4407 35.7202 17.4348 34.4854 17.4348V19.6701ZM20.0264 19.6701V17.4348C18.7916 17.4348 17.7812 18.4407 17.7812 19.6701H20.0264Z" fill="#0076FE"/>
<path d="M46.6554 34.0652V19.6701H42.165V34.0652H46.6554ZM58.8692 31.8299H44.4102V36.3004H58.8692V31.8299ZM56.624 19.6701V34.0652H61.1143V19.6701H56.624ZM44.4102 21.9053H58.8692V17.4348H44.4102V21.9053ZM44.4102 34.0652H42.165C42.165 35.2946 43.1754 36.3004 44.4102 36.3004V34.0652ZM58.8692 34.0652V36.3004C60.104 36.3004 61.1143 35.2946 61.1143 34.0652H58.8692ZM58.8692 19.6701H61.1143C61.1143 18.4407 60.104 17.4348 58.8692 17.4348V19.6701ZM44.4102 19.6701V17.4348C43.1754 17.4348 42.165 18.4407 42.165 19.6701H44.4102Z" fill="#0076FE"/>
<path d="M56.6152 45.9345V60.3296H61.1056V45.9345H56.6152ZM44.4014 48.1697H58.8604V43.6992H44.4014V48.1697ZM46.6466 60.3296V45.9345H42.1562V60.3296H46.6466ZM58.8604 58.0943H44.4014V62.5648H58.8604V58.0943ZM58.8604 45.9345H61.1056C61.1056 44.7051 60.0953 43.6992 58.8604 43.6992V45.9345ZM44.4014 45.9345V43.6992C43.1666 43.6992 42.1562 44.7051 42.1562 45.9345H44.4014ZM44.4014 60.3296H42.1562C42.1562 61.559 43.1666 62.5648 44.4014 62.5648V60.3296ZM58.8604 60.3296V62.5648C60.0953 62.5648 61.1056 61.559 61.1056 60.3296H58.8604Z" fill="#0076FE"/>
<path d="M32.2314 45.9345V60.3296H36.7218V45.9345H32.2314ZM20.0176 48.1697H34.4766V43.6992H20.0176V48.1697ZM22.2628 60.3296V45.9345H17.7725V60.3296H22.2628ZM34.4766 58.0943H20.0176V62.5648H34.4766V58.0943ZM34.4766 45.9345H36.7218C36.7218 44.7051 35.7115 43.6992 34.4766 43.6992V45.9345ZM20.0176 45.9345V43.6992C18.7828 43.6992 17.7725 44.7051 17.7725 45.9345H20.0176ZM20.0176 60.3296H17.7725C17.7725 61.559 18.7828 62.5648 20.0176 62.5648V60.3296ZM34.4766 60.3296V62.5648C35.7115 62.5648 36.7218 61.559 36.7218 60.3296H34.4766Z" fill="#0076FE"/>
</svg>
