<svg width="79" height="80" viewBox="0 0 79 80" fill="none" xmlns="http://www.w3.org/2000/svg">
<path d="M4.47052 63.6156V26.6332H0V63.6156H4.47052ZM16.3845 75.5295C9.80166 75.5295 4.47052 70.1984 4.47052 63.6156H0C0 72.6572 7.34287 80 16.3845 80V75.5295ZM62.1403 75.5295H16.3845V80H62.1403V75.5295ZM74.0542 63.6156C74.0542 70.1984 68.7232 75.5295 62.1403 75.5295V80C71.1819 80 78.5248 72.6572 78.5248 63.6156H74.0542ZM74.0542 16.3845V63.6156H78.5248V16.3845H74.0542ZM62.1403 4.47052C68.7232 4.47052 74.0542 9.80163 74.0542 16.3845H78.5248C78.5248 7.34284 71.1819 0 62.1403 0V4.47052ZM26.9796 4.47052H62.1403V0H26.9796V4.47052ZM4.47052 26.6332C4.47052 25.4038 3.46466 24.3979 2.23526 24.3979C1.00587 24.3979 0 25.4038 0 26.6332H4.47052ZM26.9796 0C25.7502 0 24.7444 1.00587 24.7444 2.23526C24.7444 3.46466 25.7502 4.47052 26.9796 4.47052V0Z" fill="white"/>
<path d="M16.3845 0C7.34287 0 0 7.34284 0 16.3845H4.47052C4.47052 9.80163 9.80166 4.47052 16.3845 4.47052V0ZM0 16.3845C0 17.6139 1.00587 18.6197 2.23526 18.6197C3.46466 18.6197 4.47052 17.6139 4.47052 16.3845H0ZM16.3845 4.47052C17.6139 4.47052 18.6198 3.46466 18.6198 2.23526C18.6198 1.00587 17.6139 0 16.3845 0V4.47052Z" fill="#FC0C35"/>
<path d="M31.3198 23.4936C26.7599 18.9336 19.3612 18.9336 14.8013 23.4936L17.9641 26.6564C20.7806 23.84 25.3405 23.84 28.1569 26.6564L31.3198 23.4936ZM14.8013 23.4936C13.9295 24.3653 13.9295 25.7847 14.8013 26.6564C15.673 27.5282 17.0924 27.5282 17.9641 26.6564L14.8013 23.4936ZM28.1569 26.6564C29.0287 27.5282 30.4481 27.5282 31.3198 26.6564C32.1916 25.7847 32.1916 24.3653 31.3198 23.4936L28.1569 26.6564Z" fill="white"/>
<path d="M60.083 23.4936C55.5231 18.9336 48.1244 18.9336 43.5645 23.4936L46.7273 26.6564C49.5437 23.84 54.1037 23.84 56.9201 26.6564L60.083 23.4936ZM43.5645 23.4936C42.6927 24.3653 42.6927 25.7847 43.5645 26.6564C44.4362 27.5282 45.8556 27.5282 46.7273 26.6564L43.5645 23.4936ZM56.9201 26.6564C57.7918 27.5282 59.2113 27.5282 60.083 26.6564C60.9548 25.7847 60.9548 24.3653 60.083 23.4936L56.9201 26.6564Z" fill="white"/>
<path d="M42.6234 66.2092C49.0722 66.2092 54.3027 60.9787 54.3027 54.5299H49.8322C49.8322 58.5199 46.6134 61.7387 42.6234 61.7387V66.2092ZM54.3027 54.5299C54.3027 53.3005 53.2968 52.2947 52.0674 52.2947C50.838 52.2947 49.8322 53.3005 49.8322 54.5299H54.3027ZM42.6234 61.7387C41.3941 61.7387 40.3882 62.7445 40.3882 63.9739C40.3882 65.2033 41.3941 66.2092 42.6234 66.2092V61.7387Z" fill="white"/>
<path d="M29.7249 46.5958L40.89 49.2446L41.9182 44.8971L30.7531 42.2483L29.7249 46.5958ZM36.5759 31.6308L28.4172 43.1312L32.0607 45.7129L40.2194 34.2125L36.5759 31.6308ZM40.89 49.2446C42.0858 49.524 43.2929 48.7864 43.5834 47.5906C43.874 46.3947 43.1252 45.1876 41.9294 44.8971L40.9012 49.2446H40.89ZM30.2389 44.4165L28.4172 43.12C27.9925 43.7235 27.8919 44.5059 28.149 45.1988C28.406 45.8917 28.9984 46.417 29.7249 46.5847L30.2389 44.4053V44.4165ZM40.2194 34.2125C40.9347 33.2066 40.7 31.8096 39.6941 31.0943C38.6882 30.379 37.2912 30.6137 36.5759 31.6196L40.2194 34.2013V34.2125Z" fill="white"/>
</svg>
